HIERARCHY
ROOT Hips
{
	OFFSET 0.00000 0.00000 0.00000
	CHANNELS 6 Xposition Yposition Zposition Zrotation Yrotation Xrotation 
	JOINT LHipJoint
	{
		OFFSET 0 0 0
		CHANNELS 3 Zrotation Yrotation Xrotation
		JOINT LeftUpLeg
		{
			OFFSET 1.77779 -1.88989 0.48267
			CHANNELS 3 Zrotation Yrotation Xrotation
			JOINT LeftLeg
			{
				OFFSET 2.53442 -6.96327 0.00000
				CHANNELS 3 Zrotation Yrotation Xrotation
				JOINT LeftFoot
				{
					OFFSET 2.71068 -7.44755 0.00000
					CHANNELS 3 Zrotation Yrotation Xrotation
					JOINT LeftToeBase
					{
						OFFSET 0.17992 -0.49431 2.22524
						CHANNELS 3 Zrotation Yrotation Xrotation
						End Site
						{
							OFFSET 0.00000 -0.00000 1.14687
						}
					}
				}
			}
		}
	}
	JOINT RHipJoint
	{
		OFFSET 0 0 0
		CHANNELS 3 Zrotation Yrotation Xrotation
		JOINT RightUpLeg
		{
			OFFSET -1.58469 -1.88989 0.48267
			CHANNELS 3 Zrotation Yrotation Xrotation
			JOINT RightLeg
			{
				OFFSET -2.60386 -7.15404 0.00000
				CHANNELS 3 Zrotation Yrotation Xrotation
				JOINT RightFoot
				{
					OFFSET -2.73334 -7.50979 0.00000
					CHANNELS 3 Zrotation Yrotation Xrotation
					JOINT RightToeBase
					{
						OFFSET -0.25618 -0.70384 2.21822
						CHANNELS 3 Zrotation Yrotation Xrotation
						End Site
						{
							OFFSET -0.00000 -0.00000 1.16381
						}
					}
				}
			}
		}
	}
	JOINT LowerBack
	{
		OFFSET 0 0 0
		CHANNELS 3 Zrotation Yrotation Xrotation
		JOINT Spine
		{
			OFFSET 0.03410 2.01612 -0.22230
			CHANNELS 3 Zrotation Yrotation Xrotation
			JOINT Spine1
			{
				OFFSET 0.03465 2.03012 0.00937
				CHANNELS 3 Zrotation Yrotation Xrotation
				JOINT Neck
				{
					OFFSET 0 0 0
					CHANNELS 3 Zrotation Yrotation Xrotation
					JOINT Neck1
					{
						OFFSET -0.00219 1.70459 0.20857
						CHANNELS 3 Zrotation Yrotation Xrotation
						JOINT Head
						{
							OFFSET 0.02518 1.72339 -0.22179
							CHANNELS 3 Zrotation Yrotation Xrotation
							End Site
							{
								OFFSET 0.00282 1.74122 -0.09823
							}
						}
					}
				}
				JOINT LeftShoulder
				{
					OFFSET 0 0 0
					CHANNELS 3 Zrotation Yrotation Xrotation
					JOINT LeftArm
					{
						OFFSET 3.36358 1.00547 -0.37661
						CHANNELS 3 Zrotation Yrotation Xrotation
						JOINT LeftForeArm
						{
							OFFSET 5.06507 -0.00000 0.00000
							CHANNELS 3 Zrotation Yrotation Xrotation
							JOINT LeftHand
							{
								OFFSET 3.60196 -0.00000 0.00000
								CHANNELS 3 Zrotation Yrotation Xrotation
								JOINT LeftFingerBase
								{
									OFFSET 0 0 0
									CHANNELS 3 Zrotation Yrotation Xrotation
									JOINT LeftHandIndex1
									{
										OFFSET 0.45035 -0.00000 0.00000
										CHANNELS 3 Zrotation Yrotation Xrotation
										End Site
										{
											OFFSET 0.36308 -0.00000 0.00000
										}
									}
								}
								JOINT LThumb
								{
									OFFSET 0 0 0
									CHANNELS 3 Zrotation Yrotation Xrotation
									End Site
									{
										OFFSET 0.36862 -0.00000 0.36862
									}
								}
							}
						}
					}
				}
				JOINT RightShoulder
				{
					OFFSET 0 0 0
					CHANNELS 3 Zrotation Yrotation Xrotation
					JOINT RightArm
					{
						OFFSET -3.50159 0.80383 -0.71526
						CHANNELS 3 Zrotation Yrotation Xrotation
						JOINT RightForeArm
						{
							OFFSET -5.36394 -0.00000 0.00000
							CHANNELS 3 Zrotation Yrotation Xrotation
							JOINT RightHand
							{
								OFFSET -3.58035 -0.00000 0.00000
								CHANNELS 3 Zrotation Yrotation Xrotation
								JOINT RightFingerBase
								{
									OFFSET 0 0 0
									CHANNELS 3 Zrotation Yrotation Xrotation
									JOINT RightHandIndex1
									{
										OFFSET -0.66375 -0.00000 0.00000
										CHANNELS 3 Zrotation Yrotation Xrotation
										End Site
										{
											OFFSET -0.53513 -0.00000 0.00000
										}
									}
								}
								JOINT RThumb
								{
									OFFSET 0 0 0
									CHANNELS 3 Zrotation Yrotation Xrotation
									End Site
									{
										OFFSET -0.54330 -0.00000 0.54330
									}
								}
							}
						}
					}
				}
			}
		}
	}
}
MOTION
Frames: 13
Frame Time: .0083333
-0.2832 16.7024 -30.2583 0 0 0 0 0 0 -21 0 0 0 0 0 0 0 0 0 0 0 0 0 0 21 0 0 0 0 0 0 0 0 0 0 0 0 0 0 0 0 0 0 0 0 0 0 -16 0 0 21 0 0 11 0 0 0 -8 0 0 0 0 0 0 0 0 0 0 0 0 0 0 0 0 0 0 0 0 8 0 0 0 0 0 0 0 0 0 0 0 0 0 0 0 0 0
-0.2832 16.7024 -30.2583 -5.0205 -4.5763 1.6084 0.0000 0.0000 0.0000 -10.6258 -2.1201 -27.7578 21.6029 19.9383 94.6912 -0.2826 -9.4418 2.2808 0.3194 -3.6330 -10.0462 0.0000 0.0000 0.0000 33.2137 9.9873 -15.0101 -8.6880 -16.6027 55.0047 -2.3071 -5.1804 -30.8974 -0.3113 3.5871 -9.9178 2.4173 0.1836 15.4647 3.8270 1.0087 0.1509 2.5188 0.4717 -8.5737 -3.0393 -2.5593 -16.5148 2.3124 -3.1712 15.0392 0.9011 -1.4722 7.4253 0.0000 0.0000 0.0000 -88.7037 21.8341 43.4430 118.4694 -56.7042 -84.3824 -0.0000 0.0000 -30.9924 26.6077 5.6229 2.8099 -7.1250 0.0000 -0.0000 -0.0808 36.2636 0.0173 0.0000 0.0000 0.0000 87.6765 -8.9664 45.4690 -111.1160 58.2463 -78.1793 0.0000 -0.0000 -17.7280 -27.0641 34.7396 -16.2332 7.1250 -0.0000 -0.0000 3.1762 7.8771 3.5867
-0.2759 16.7096 -29.8442 -5.3608 -4.4812 1.9313 0.0000 0.0000 0.0000 -9.8624 -2.4914 -30.1977 21.6890 19.9315 94.9437 -0.2721 -9.5538 0.7622 0.3569 -3.8379 -10.6211 0.0000 0.0000 0.0000 33.7697 9.4863 -13.4561 -8.4478 -16.4389 54.1600 -2.2605 -6.0027 -31.0352 -0.4567 4.3354 -12.0223 3.2189 0.5047 15.1265 3.5290 1.5192 0.3921 1.6256 0.6813 -8.1047 -2.3890 -2.8802 -17.4412 2.2514 -3.7351 15.0248 0.7004 -1.7011 7.5818 -0.0000 -0.0000 0.0000 -87.5615 22.2086 44.3072 119.0923 -56.5470 -84.9026 -0.0000 0.0000 -31.6161 26.2688 6.2342 3.0679 -7.1250 0.0000 -0.0000 -0.3958 36.9249 0.0786 -0.0000 -0.0000 0.0000 88.3100 -6.7318 45.3395 -112.8183 57.9382 -79.6244 0.0000 -0.0000 -18.3003 -26.8209 34.3484 -15.9217 7.1250 -0.0000 -0.0000 3.2307 7.4110 3.6258
-0.2665 16.7379 -29.4249 -5.6549 -4.3862 2.2040 0.0000 0.0000 0.0000 -9.2490 -2.9867 -32.5593 21.5416 19.9429 94.5115 -0.2587 -9.5079 0.1366 0.2800 -3.4032 -9.4034 0.0000 0.0000 0.0000 34.2488 8.9395 -11.6773 -8.1317 -16.2152 53.0355 -2.1678 -6.5147 -30.7444 -0.5209 4.6254 -12.8431 4.0491 0.6360 14.5806 3.2396 1.7660 0.5858 0.7971 0.7715 -7.5554 -2.0821 -3.0575 -17.4344 2.4051 -4.0724 14.5816 0.6642 -1.8319 7.4397 -0.0000 -0.0000 0.0000 -86.7407 22.8626 44.5600 119.7296 -56.3816 -85.4338 -0.0000 0.0000 -32.4919 25.6687 5.6211 2.6952 -7.1250 0.0000 -0.0000 -0.8707 36.2106 0.1882 -0.0000 -0.0000 0.0000 88.7678 -5.0769 45.6543 -114.3109 57.6446 -80.8874 0.0000 -0.0000 -18.6248 -26.2210 34.8617 -15.7230 7.1250 -0.0000 -0.0000 3.6566 7.7817 4.1259
-0.2573 16.7867 -28.9954 -5.8900 -4.3110 2.3060 0.0000 0.0000 0.0000 -8.8217 -3.5655 -34.5903 21.2463 19.9627 93.6463 -0.2459 -9.3723 -0.1453 0.1795 -2.7290 -7.5251 0.0000 0.0000 0.0000 34.6309 8.4260 -9.4981 -7.7836 -15.9578 51.7794 -2.1143 -6.2713 -30.2800 -0.5352 4.6874 -13.0192 4.1766 1.0023 15.1978 3.3731 2.3250 0.5736 0.7416 1.0335 -7.9088 -2.0374 -3.3800 -19.0458 2.1537 -4.4620 15.2110 0.5010 -2.0195 7.9257 0.0000 -0.0000 0.0000 -86.4907 23.5294 45.1711 120.0632 -56.2931 -85.7115 -0.0000 0.0000 -32.9084 25.5726 4.2909 2.0506 -7.1250 0.0000 -0.0000 -0.8886 34.7335 0.2240 0.0000 -0.0000 0.0000 88.5208 -3.6763 45.3932 -116.2273 57.2342 -82.5026 0.0000 -0.0000 -18.8800 -26.2033 35.8772 -16.0883 7.1250 -0.0000 -0.0000 3.8677 8.8142 4.4240
-0.2454 16.8591 -28.5552 -5.9357 -4.2556 2.4434 0.0000 0.0000 0.0000 -8.7277 -4.1179 -36.3844 20.7544 19.9864 92.2061 -0.2103 -8.9963 -0.8817 0.1519 -2.5118 -6.9223 0.0000 0.0000 0.0000 34.7527 7.9896 -7.3708 -7.3878 -15.6500 50.3262 -2.0226 -5.5840 -29.3299 -0.7156 5.4058 -15.0697 4.0666 1.1222 15.2268 3.5695 2.5195 -0.0027 0.9715 1.1225 -8.5639 -2.5937 -3.3910 -16.9972 2.2771 -4.3908 14.8621 0.6724 -2.0277 7.4729 -0.0000 -0.0000 0.0000 -86.8594 26.0905 44.9288 121.0146 -56.0334 -86.5018 -0.0000 0.0000 -32.8334 25.6112 3.9848 1.9079 -7.1250 0.0000 -0.0000 -0.8444 34.3961 0.2198 -0.0000 -0.0000 0.0000 87.9587 -3.9466 45.8660 -118.2034 56.7700 -84.1600 0.0000 -0.0000 -18.9344 -25.9285 36.1794 -16.0138 7.1250 -0.0000 -0.0000 4.0751 9.0500 4.6763
-0.2273 16.9444 -28.1065 -5.8836 -3.8872 2.8186 0.0000 0.0000 0.0000 -8.8081 -5.0186 -38.0574 20.1077 19.9997 90.3150 -0.1427 -8.3181 -2.2451 0.2466 -3.1952 -8.8228 0.0000 0.0000 0.0000 34.6815 7.4116 -5.6003 -6.9618 -15.2997 48.7298 -1.8645 -5.1049 -28.0388 -0.9485 6.2024 -17.3728 4.3461 1.2979 14.9540 3.3966 2.7841 -0.2569 0.5753 1.2307 -8.6619 -2.4929 -3.5877 -16.8191 2.3187 -4.6977 14.9220 0.6367 -2.1655 7.4683 -0.0000 -0.0000 0.0000 -86.3452 27.5715 45.2729 121.7697 -55.8196 -87.1272 -0.0000 0.0000 -32.9401 25.4832 4.1118 1.9573 -7.1250 0.0000 -0.0000 -0.9551 34.5317 0.2454 -0.0000 -0.0000 0.0000 88.0647 -3.5124 45.7035 -119.9754 56.3165 -85.6385 0.0000 -0.0000 -18.9543 -25.1994 35.7849 -15.3843 7.1250 -0.0000 -0.0000 4.3862 8.4617 4.9975
-0.2023 17.0435 -27.6376 -5.7979 -3.2399 3.1217 0.0000 0.0000 0.0000 -8.9887 -6.2663 -39.3816 19.3116 19.9886 87.9868 -0.0682 -7.3148 -3.3710 0.3185 -3.6277 -10.0315 0.0000 0.0000 0.0000 34.5112 6.4367 -3.8483 -6.5337 -14.9264 47.0880 -1.6038 -5.3595 -26.3665 -1.1765 6.8844 -19.3734 4.7804 1.3964 14.7754 3.1721 2.9676 -0.4101 0.0544 1.2926 -8.6902 -2.3383 -3.8251 -17.4786 2.3397 -5.0602 15.3028 0.5623 -2.3174 7.7131 -0.0000 -0.0000 0.0000 -85.8104 28.4405 45.6246 122.0164 -55.7482 -87.3312 -0.0000 0.0000 -33.0665 25.8817 3.2114 1.5569 -7.1250 0.0000 -0.0000 -0.5957 33.5478 0.1673 -0.0000 -0.0000 0.0000 88.2294 -2.8293 45.3159 -121.4792 55.9027 -86.8868 0.0000 -0.0000 -18.9842 -25.1682 35.6845 -15.3280 7.1250 -0.0000 -0.0000 4.3834 8.3518 4.9872
-0.1767 17.1519 -27.1500 -5.6295 -2.8020 3.3547 0.0000 0.0000 0.0000 -9.3194 -7.3233 -40.4072 18.3847 19.9373 85.2725 -0.0205 -6.2595 -3.8141 0.2340 -3.1132 -8.5941 0.0000 0.0000 0.0000 34.2029 5.6215 -1.9362 -6.1242 -14.5477 45.4783 -1.3281 -4.9990 -24.0883 -1.2093 6.9763 -19.6452 4.9668 1.4517 14.2712 3.0769 3.0375 -0.5654 -0.1538 1.3181 -8.5558 -2.4669 -3.9396 -17.1751 2.3281 -5.1857 15.2190 0.5703 -2.3897 7.6392 0.0000 0.0000 0.0000 -85.9386 29.4737 45.3211 122.0085 -55.7505 -87.3247 -0.0000 0.0000 -33.1832 26.2783 3.2379 1.5975 -7.1250 0.0000 -0.0000 -0.2722 33.5898 0.0761 0.0000 0.0000 0.0000 88.0204 -2.4037 45.3206 -122.7042 55.5452 -87.8990 0.0000 -0.0000 -19.0508 -25.6864 36.2030 -15.8591 7.1250 -0.0000 -0.0000 4.2087 9.0111 4.8280
-0.1511 17.2507 -26.6657 -5.4776 -2.4516 3.6450 0.0000 0.0000 0.0000 -9.6054 -8.2336 -41.2454 17.3909 19.8360 82.3515 -0.0312 -5.9492 -3.2185 0.0849 -1.8789 -5.1712 0.0000 0.0000 0.0000 33.8205 4.9726 -0.2152 -5.7424 -14.1740 43.9389 -1.0381 -4.1460 -21.1643 -1.2175 6.9992 -19.7129 5.1648 1.5643 13.4344 2.9632 3.1570 -0.7268 -0.3857 1.3720 -8.2331 -2.6743 -4.0795 -16.1297 2.4481 -5.3590 14.7240 0.6462 -2.4875 7.3101 0.0000 0.0000 0.0000 -86.1184 30.6471 44.9077 122.0890 -55.7271 -87.3912 -0.0000 0.0000 -33.1024 26.9608 3.6010 1.8299 -7.1250 0.0000 -0.0000 0.2787 34.0184 -0.0751 0.0000 0.0000 0.0000 87.9152 -2.2799 45.1973 -123.7394 55.2283 -88.7510 0.0000 -0.0000 -18.9553 -25.6141 35.8889 -15.6978 7.1250 -0.0000 -0.0000 4.1847 8.6733 4.7798
-0.1321 17.3421 -26.1976 -5.3855 -1.9137 3.7201 0.0000 0.0000 0.0000 -9.8079 -9.1880 -41.7200 16.3282 19.6736 79.2079 0.0039 -5.8524 -4.2110 0.2170 -2.9989 -8.2757 0.0000 0.0000 0.0000 33.5617 4.1512 1.4914 -5.3654 -13.7838 42.3782 -0.7118 -4.0394 -17.9090 -1.3569 7.3735 -20.8267 5.2187 1.5395 13.2006 2.9737 3.1514 -1.2725 -0.4011 1.3504 -8.6922 -3.0209 -4.0653 -13.8499 2.6119 -5.3325 14.0349 0.8066 -2.5082 6.7090 0.0000 -0.0000 0.0000 -86.5310 32.6976 44.2069 122.3439 -55.6523 -87.6018 -0.0000 0.0000 -32.7257 27.6566 3.9159 2.0496 -7.1250 0.0000 -0.0000 0.8454 34.3979 -0.2200 0.0000 -0.0000 0.0000 87.6754 -3.0847 45.3709 -124.7368 54.9096 -89.5688 0.0000 -0.0000 -18.7855 -25.9556 35.2867 -15.7056 7.1250 -0.0000 -0.0000 3.8830 8.1476 4.4035
-0.1168 17.4424 -25.7270 -5.3129 -1.3026 3.5859 0.0000 0.0000 0.0000 -10.0295 -10.1011 -41.7637 15.1269 19.4209 75.6187 0.0356 -6.2912 -5.2958 0.3715 -3.9150 -10.8376 0.0000 0.0000 0.0000 33.3902 3.3236 3.4077 -4.9755 -13.3562 40.7168 -0.4042 -4.1787 -14.2786 -1.3261 7.2927 -20.5854 5.5085 1.6276 13.3433 2.7777 3.3045 -1.1968 -0.8070 1.4065 -8.6573 -2.8587 -4.2315 -14.6531 2.6999 -5.5949 14.3217 0.7635 -2.6069 6.9449 0.0000 0.0000 0.0000 -86.2764 33.1632 44.0586 122.3235 -55.6583 -87.5849 -0.0000 0.0000 -32.3479 27.8394 3.9074 2.0611 -7.1250 0.0000 -0.0000 0.9965 34.3954 -0.2594 0.0000 0.0000 0.0000 87.7926 -2.4280 44.8685 -125.1650 54.7687 -89.9188 0.0000 -0.0000 -18.7876 -26.0854 35.5745 -15.8979 7.1250 -0.0000 -0.0000 3.8701 8.4750 4.4075
-0.1008 17.5645 -25.2402 -5.2197 -0.6656 3.4321 0.0000 0.0000 0.0000 -10.3379 -11.0179 -41.4224 13.7667 19.0417 71.4907 0.0117 -6.8483 -5.0789 0.3541 -3.8229 -10.5789 0.0000 0.0000 0.0000 33.0654 2.2794 5.2672 -4.5577 -12.8677 38.8752 -0.1541 -4.1674 -10.1322 -1.2652 7.1299 -20.1007 5.7828 1.6837 13.1497 2.5974 3.3874 -1.1279 -1.1608 1.4366 -8.4402 -2.7957 -4.3011 -14.7217 2.8833 -5.7326 14.2949 0.7966 -2.6525 6.9559 -0.0000 -0.0000 0.0000 -86.1776 33.7719 43.7190 122.2480 -55.6805 -87.5226 -0.0000 0.0000 -32.0415 27.3473 3.3388 1.7253 -7.1250 0.0000 -0.0000 0.6011 33.7371 -0.1660 -0.0000 -0.0000 0.0000 87.8510 -2.0944 44.4360 -125.5155 54.6515 -90.2050 0.0000 -0.0000 -18.9161 -26.0256 35.9127 -15.9820 7.1250 -0.0000 -0.0000 3.9697 8.8039 4.5406
